REM DIRINDEX 1\2\6,1\2\7,1\2\8,1\2\9,1\3\10,1\3\11,1\4\12,1\4\13,1\4\14,1\5\15,1\5\16,1\5\17
REM DIRNAME cjc020,folder01,folder02,folder03,folder04,folder05,folder06,folder07,folder08,folder09,folder10,folder11,folder12,folder13,folder14,folder15,folder16
TITLE ""
FILE "1900_2_sec06_0548_0564.mp3" MP3
  TRACK 01 AUDIO
    TITLE "0:"
    INDEX 01 00:00:00
  TRACK 02 AUDIO
    TITLE "13:cjc020_3204"
    INDEX 01 00:00:19
  TRACK 03 AUDIO
    TITLE "0:"
    INDEX 01 00:01:30
  TRACK 04 AUDIO
    TITLE "14:cjc020_3205"
    INDEX 01 00:01:36
  TRACK 05 AUDIO
    TITLE "0:"
    INDEX 01 00:04:42
  TRACK 06 AUDIO
    TITLE "13:cjc020_3206"
    INDEX 01 00:05:20
  TRACK 07 AUDIO
    TITLE "0:"
    INDEX 01 00:06:37
  TRACK 08 AUDIO
    TITLE "14:cjc020_3207"
    INDEX 01 00:06:45
  TRACK 09 AUDIO
    TITLE "0:"
    INDEX 01 00:09:02
  TRACK 10 AUDIO
    TITLE "13:cjc020_3208"
    INDEX 01 00:09:57
  TRACK 11 AUDIO
    TITLE "0:"
    INDEX 01 00:11:05
  TRACK 12 AUDIO
    TITLE "14:cjc020_3209"
    INDEX 01 00:11:07
  TRACK 13 AUDIO
    TITLE "0:"
    INDEX 01 00:13:69
  TRACK 14 AUDIO
    TITLE "13:cjc020_3210"
    INDEX 01 00:14:47
  TRACK 15 AUDIO
    TITLE "0:"
    INDEX 01 00:15:70
  TRACK 16 AUDIO
    TITLE "14:cjc020_3211"
    INDEX 01 00:16:00
  TRACK 17 AUDIO
    TITLE "0:"
    INDEX 01 00:20:47
  TRACK 18 AUDIO
    TITLE "13:cjc020_3212"
    INDEX 01 00:21:27
  TRACK 19 AUDIO
    TITLE "0:"
    INDEX 01 00:22:27
  TRACK 20 AUDIO
    TITLE "14:cjc020_3213"
    INDEX 01 00:22:34
  TRACK 21 AUDIO
    TITLE "0:"
    INDEX 01 00:26:28
  TRACK 22 AUDIO
    TITLE "13:cjc020_3214"
    INDEX 01 00:27:08
  TRACK 23 AUDIO
    TITLE "0:"
    INDEX 01 00:28:08
  TRACK 24 AUDIO
    TITLE "14:cjc020_3215"
    INDEX 01 00:28:12
  TRACK 25 AUDIO
    TITLE "0:"
    INDEX 01 00:30:01
  TRACK 26 AUDIO
    TITLE "13:cjc020_3216"
    INDEX 01 00:30:57
  TRACK 27 AUDIO
    TITLE "0:"
    INDEX 01 00:31:71
  TRACK 28 AUDIO
    TITLE "14:cjc020_3217"
    INDEX 01 00:32:00
  TRACK 29 AUDIO
    TITLE "0:"
    INDEX 01 00:34:34
  TRACK 30 AUDIO
    TITLE "13:cjc020_3218"
    INDEX 01 00:35:15
  TRACK 31 AUDIO
    TITLE "0:"
    INDEX 01 00:36:33
  TRACK 32 AUDIO
    TITLE "14:cjc020_3219"
    INDEX 01 00:36:36
  TRACK 33 AUDIO
    TITLE "0:"
    INDEX 01 00:39:25
  TRACK 34 AUDIO
    TITLE "13:cjc020_3220"
    INDEX 01 00:40:03
  TRACK 35 AUDIO
    TITLE "0:"
    INDEX 01 00:41:22
  TRACK 36 AUDIO
    TITLE "14:cjc020_3221"
    INDEX 01 00:41:24
  TRACK 37 AUDIO
    TITLE "0:"
    INDEX 01 00:43:40
  TRACK 38 AUDIO
    TITLE "13:cjc020_3222"
    INDEX 01 00:44:20
  TRACK 39 AUDIO
    TITLE "0:"
    INDEX 01 00:45:28
  TRACK 40 AUDIO
    TITLE "14:cjc020_3223"
    INDEX 01 00:45:32
  TRACK 41 AUDIO
    TITLE "0:"
    INDEX 01 00:48:61
  TRACK 42 AUDIO
    TITLE "13:cjc020_3224"
    INDEX 01 00:49:39
  TRACK 43 AUDIO
    TITLE "0:"
    INDEX 01 00:50:56
  TRACK 44 AUDIO
    TITLE "14:cjc020_3225"
    INDEX 01 00:50:58
  TRACK 45 AUDIO
    TITLE "0:"
    INDEX 01 00:55:34
  TRACK 46 AUDIO
    TITLE "13:cjc020_3226"
    INDEX 01 00:56:12
  TRACK 47 AUDIO
    TITLE "0:"
    INDEX 01 00:57:23
  TRACK 48 AUDIO
    TITLE "14:cjc020_3227"
    INDEX 01 00:57:27
  TRACK 49 AUDIO
    TITLE "0:"
    INDEX 01 00:58:73
  TRACK 50 AUDIO
    TITLE "13:cjc020_3228"
    INDEX 01 00:59:51
  TRACK 51 AUDIO
    TITLE "0:"
    INDEX 01 01:00:51
  TRACK 52 AUDIO
    TITLE "14:cjc020_3229"
    INDEX 01 01:00:53
  TRACK 53 AUDIO
    TITLE "0:"
    INDEX 01 01:01:62
  TRACK 54 AUDIO
    TITLE "13:cjc020_3230"
    INDEX 01 01:02:40
  TRACK 55 AUDIO
    TITLE "0:"
    INDEX 01 01:03:69
  TRACK 56 AUDIO
    TITLE "14:cjc020_3231"
    INDEX 01 01:04:01
  TRACK 57 AUDIO
    TITLE "0:"
    INDEX 01 01:07:23
  TRACK 58 AUDIO
    TITLE "13:cjc020_3232"
    INDEX 01 01:08:01
  TRACK 59 AUDIO
    TITLE "0:"
    INDEX 01 01:09:10
  TRACK 60 AUDIO
    TITLE "14:cjc020_3233"
    INDEX 01 01:09:12
  TRACK 61 AUDIO
    TITLE "0:"
    INDEX 01 01:12:60
  TRACK 62 AUDIO
    TITLE "13:cjc020_3234"
    INDEX 01 01:13:42
  TRACK 63 AUDIO
    TITLE "0:"
    INDEX 01 01:14:35
  TRACK 64 AUDIO
    TITLE "14:cjc020_3235"
    INDEX 01 01:14:37
  TRACK 65 AUDIO
    TITLE "0:"
    INDEX 01 01:16:56
  TRACK 66 AUDIO
    TITLE "13:cjc020_3236"
    INDEX 01 01:17:37
  TRACK 67 AUDIO
    TITLE "0:"
    INDEX 01 01:19:01
  TRACK 68 AUDIO
    TITLE "14:cjc020_3237"
    INDEX 01 01:19:05
  TRACK 69 AUDIO
    TITLE "0:"
    INDEX 01 01:21:21
